<?xml version="1.0" encoding="UTF-8" standalone="no"?>
<svg
   xmlns:dc="http://purl.org/dc/elements/1.1/"
   xmlns:cc="http://creativecommons.org/ns#"
   xmlns:rdf="http://www.w3.org/1999/02/22-rdf-syntax-ns#"
   xmlns:svg="http://www.w3.org/2000/svg"
   xmlns="http://www.w3.org/2000/svg"
   xmlns:sodipodi="http://sodipodi.sourceforge.net/DTD/sodipodi-0.dtd"
   xmlns:inkscape="http://www.inkscape.org/namespaces/inkscape"
   fill-rule="evenodd"
   clip-rule="evenodd"
   image-rendering="optimizeQuality"
   shape-rendering="geometricPrecision"
   text-rendering="geometricPrecision"
   viewBox="0 0 252 172"
   version="1.1"
   id="svg14"
   sodipodi:docname="404sp.svg"
   inkscape:version="0.92.3 (2405546, 2018-03-11)">
  <metadata
     id="metadata18">
    <rdf:RDF>
      <cc:Work
         rdf:about="">
        <dc:format>image/svg+xml</dc:format>
        <dc:type
           rdf:resource="http://purl.org/dc/dcmitype/StillImage" />
        <dc:title></dc:title>
      </cc:Work>
    </rdf:RDF>
  </metadata>
  <sodipodi:namedview
     pagecolor="#ffffff"
     bordercolor="#666666"
     borderopacity="1"
     objecttolerance="10"
     gridtolerance="10"
     guidetolerance="10"
     inkscape:pageopacity="0"
     inkscape:pageshadow="2"
     inkscape:window-width="828"
     inkscape:window-height="480"
     id="namedview16"
     showgrid="false"
     inkscape:zoom="1.372093"
     inkscape:cx="126"
     inkscape:cy="86"
     inkscape:window-x="0"
     inkscape:window-y="27"
     inkscape:window-maximized="0"
     inkscape:current-layer="svg14" />
  <defs
     id="defs2" />
  <defs
     id="defs6">
    <style
       id="style4">.fil1{fill:#212121;fill-rule:nonzero}</style>
  </defs>
  <g
     id="Слой_x0020_1">
    <g
       id="_2580997110064">
      <path
         fill="#ffd34e"
         fill-rule="nonzero"
         d="M45 27.9C45 11.5 35.8 1 22 1 12.6 1 6.4 5.8 6.4 13c0 5.4 3.7 9 9 9 5 0 7.5-6.5 13.8-6.5 8.5 0 14.2 4.8 14.2 12.3 0 17.8-6.7 33-16 46.5-7.5 10.9-17.9 22.2-26.4 32v2.5h61c2.1 0 2.8 1 2.8 2.7v13.3c0 2.2-1 4.3-11.8 4.3h-7.8v1.2h37V129h-3.5c-10.8 0-11.9-2-11.9-4.3v-13.3c0-1.7.7-2.8 2.9-2.8h10.2v-2H69.7c-2.2 0-2.9-.9-2.9-2.6V47.8a2 2 0 00-2 2V104c0 1.7-.7 2.7-2.8 2.7H5.7c-2.2 0-1.9-1.4-.7-2.7 8.6-9.8 17.1-19.4 24-29.6A84.4 84.4 0 0045 28zm78.2-9.6c-21.9 0-37.9 23.6-37.9 56.2a79 79 0 006.3 32.3l.2-4.8c-2.9-8-4.5-17.2-4.5-27.5 0-31.7 15.1-54.7 35.9-54.7 20.8 0 35.8 23 35.8 54.7 0 31.7-15.1 54.7-35.8 54.7-8.7 0-14.4-8.5-14.4-21.2 0-6.3 6.5-8.8 6.5-13.7 0-5.4-3.6-9-9-9-7.2 0-12 6.1-12 15.4 0 18 11.6 30 28.9 30 21.8 0 37.8-23.5 37.8-56.2 0-32.6-16-56.2-37.8-56.2zm90.7 9.6c0-16.4-9.4-26.9-23.2-26.9-9.3 0-15.5 4.8-15.5 12 0 5.4 3.7 9 9 9 5 0 7.4-6.5 13.8-6.5 8.5 0 14.1 4.8 14.1 12.3a81 81 0 01-16 46.5c-7.4 10.9-17.8 22.2-26.3 32v2.5h61c2.1 0 2.8 1 2.8 2.7v13.3c0 2.2-1 4.3-11.8 4.3H214v1.2h37V129h-3.6c-10.8 0-11.8-2-11.8-4.3v-13.3c0-1.7.7-2.8 2.9-2.8h10.1v-2h-10.1c-2.2 0-2.9-.9-2.9-2.6V47.8a2 2 0 00-2 2V104c0 1.7-.7 2.7-2.8 2.7h-56.4c-2 0-1.8-1.4-.6-2.7 8.6-9.8 17.1-19.4 24-29.6a84.4 84.4 0 0016-46.6z"
         id="path8" />
      <path
         d="M4.6 156.9c0 1 .1 1.9.3 2.7l1 2.2c.4.6.9 1 1.5 1.4.6.3 1.3.5 2 .5l1.5-.2a6.8 6.8 0 003.8-2.7l1.1 1a9.2 9.2 0 01-3.6 3l-1.7.6a9 9 0 01-4.8-.5 7.4 7.4 0 01-4.1-4.4 9.1 9.1 0 01-.4-5.3l.7-2 1.1-1.7a7.4 7.4 0 016-2.8 6.4 6.4 0 012 .3 9.6 9.6 0 012 .8v-1h1.7v5.4h-1.5a5.2 5.2 0 00-1.3-2.9c-.6-.6-1.5-1-2.5-1a4 4 0 00-2.1.6c-.6.4-1.1.9-1.5 1.5-.4.6-.7 1.3-.9 2l-.3 2.5zm23.3 1l-.1-1.2a2 2 0 00-.4-.7c-.1-.2-.4-.4-.6-.4l-1-.1h-1.1v7.4l-.1.6 1.5-.1v1.8h-6v-1.5c.3 0 .5 0 .7-.2.2 0 .3-.2.4-.4l.2-.6V157.4v-.4-.5-.5-.5h-2.1l-.6.5a2 2 0 00-.4.7l-.1 1.1h-1.5v-4.1h12.6l.1 4.1H28zm9.2-2.5c-.4 0-.8 0-1.1.3a2 2 0 00-.8.7v7l.3.1.4.2h1c.5 0 1 0 1.3-.3.3-.2.6-.5.8-1l.5-1.3a10.6 10.6 0 000-3.2l-.5-1.3c-.2-.4-.5-.7-.8-.9a2 2 0 00-1.2-.3zm-5.2 2.3v-.9l.1-1h-1.6v-1.7a14.7 14.7 0 002.4-.2l.7-.2.4-.3h1.2v1.1h.1l1.6-1 1.5-.2a4.2 4.2 0 013.4 1.6c.4.5.7 1 1 1.8a8.3 8.3 0 01-.2 5 5.2 5.2 0 01-3 3.4 5.6 5.6 0 01-4.3 0v3.1a196 196 0 00-.1 1.1h1.5v1.7h-6v-1.5l.7-.1.4-.4.2-.7V157.7zm18.8 2.1l-1.2.3c-.4 0-.7.2-1 .4l-.7.7-.2.9.1.5c0 .2.2.3.3.4l.4.2h.5c.3 0 .7 0 1-.2l.8-.6v-2.6zm-5.9-3.5c0-.4.1-.8.4-1.2.2-.4.6-.7 1-1l1.5-.6a7.8 7.8 0 013.8 0c.5.2 1 .5 1.3.9.4.3.6.8.8 1.3.2.6.3 1.2.3 2v5.8l1.4-.1v1.8h-4.4v-.6-.5a4.6 4.6 0 01-4.8 1.2l-1-.7a3.1 3.1 0 01-.8-2.1c0-.5 0-1 .2-1.4l.8-1 1-.8 1.4-.6a11.2 11.2 0 013-.5V157v-.8l-.3-.7-.6-.4c-.2-.1-.4-.2-.7-.1l-1 .1a2 2 0 00-.6.5l.2.5v.9l-.3.4-.5.4h-.7a1.5 1.5 0 01-1-.4c-.2-.1-.3-.3-.3-.5l-.1-.6zm25 8.9H64v-1.5c.3 0 .5 0 .7-.2.2 0 .3-.2.4-.4l.2-.6v-2.3H61V163.5l1.4-.1v1.8h-6v-1.5l.8-.2c.2 0 .4-.2.5-.4l.1-.6V157.4v-.4-.6l.1-.5v-.6l-1.4.1v-1.7h5.9v1.5l-.8.1a1 1 0 00-.4.4l-.1.7v2h4.2v-1-.4-.5-.6l.1-.6-1.5.1v-1.7h6v1.5l-.8.1a1 1 0 00-.4.4l-.2.7v6.5l-.1.6 1.5-.1v1.8zm14-3.7v2H85l.3-.1v1.8h-6v-1.5c.3 0 .5 0 .7-.2.2 0 .3-.2.4-.4l.2-.6v-4.2l-4.2 4.1v1.1h1.1l.3-.1v1.8h-6v-1.5l.7-.2c.2 0 .3-.2.4-.4l.2-.6V157.4v-.4-.6-.5l.1-.6h-.8l-.4.1h-.3v-1.7h6v1.5l-.7.1-.4.4-.1.7v3.8l4.1-4v-.5l.1-.4h-.4a77.2 77.2 0 00-.8.1h-.3v-1.7h6v1.5l-.7.1a1 1 0 00-.4.4l-.2.7v5.1zm17.3 7.8h-1.5v-2l-.4-1.2-.6-.7c-.3-.2-.5-.2-.8-.2H87v-1.5l.7-.2c.2 0 .4-.2.4-.4l.2-.6V157.4v-.4-.6l.1-.5v-.6l-1.5.1v-1.7h6v1.5l-.8.1-.4.4-.2.7v7h2.8c.4 0 .6 0 .8-.2.2 0 .3-.2.4-.3l.2-.6v-4.9-.4-.6-.5l.1-.6-1.5.1v-1.7h6v1.5l-.8.1a1 1 0 00-.4.4l-.2.7v6.5l-.1.6 2.3-.1v6zm7.8-9.5c-.5 0-.9.2-1.3.3-.3 0-.7.2-1 .4l-.6.7c-.2.2-.2.5-.2.9v.5l.4.4.4.2h.4c.4 0 .7 0 1-.2.4-.1.6-.3.9-.6v-2.6zm-6-3.5c0-.4.2-.8.4-1.2l1-1 1.6-.6a7.7 7.7 0 013.7 0 3.5 3.5 0 012.2 2.2c.2.6.3 1.2.3 2v5.2l-.1.6 1.5-.1v1.8H109v-.6-.5h-.1a4.6 4.6 0 01-4.7 1.2 2.7 2.7 0 01-1.6-1.6c-.2-.4-.2-.8-.2-1.2a3.2 3.2 0 011-2.4c.2-.3.6-.6 1-.8l1.3-.6a11.2 11.2 0 013-.5V157v-.8c0-.3-.1-.5-.3-.7l-.5-.4c-.2-.1-.5-.2-.8-.1l-.8.1a2 2 0 00-.7.5l.2.5v.9a1.4 1.4 0 01-.8.8h-.7a1.5 1.5 0 01-1-.4c-.2-.1-.3-.3-.3-.5l-.1-.6zm31.2 8.9h-6v-1.5c.4 0 .7 0 .9-.2l.4-.4.1-.6v-2.3h-4.3V163.5l1.5-.1v1.8h-6v-1.5l.8-.2c.2 0 .3-.2.4-.4l.2-.6V157.4v-.4-.6-.5-.6l-1.4.1v-1.7h6v1.5l-.8.1a1 1 0 00-.4.4l-.2.7v2h4.3v-1-.4-.5-.6-.6l-1.4.1v-1.7h5.9v1.5l-.8.1a1 1 0 00-.4.4l-.2.7v7.1l1.4-.1v1.8zm7.6-10.3a2 2 0 00-1 .2 2 2 0 00-.6.5 3 3 0 00-.5.8l-.3 1.1h4.3l-.2-1.2-.4-.8-.6-.5a2 2 0 00-.7-.1zm5 4l-7.5.2c0 .6 0 1.2.2 1.8 0 .5.3 1 .5 1.3l1 1a3.8 3.8 0 003.2 0 5 5 0 001.7-1.5l1 1a6.6 6.6 0 01-2.7 2.3 5.8 5.8 0 01-2.6.5c-.9 0-1.6-.1-2.3-.4-.7-.3-1.3-.7-1.8-1.2-.5-.6-1-1.2-1.2-2a7.4 7.4 0 010-4.8 6 6 0 011.2-2c.5-.5 1-1 1.8-1.3.7-.3 1.5-.5 2.4-.5l1.2.1c.5 0 .9.2 1.3.4l1 .7c.4.3.7.6.9 1l.6 1.5.2 2zm21.3 6.3h-5.9v-1.5c.3 0 .6 0 .8-.2l.4-.4.1-.6v-2.3h-4.2v2.7l-.1.6 1.5-.1v1.8h-6v-1.5l.8-.2c.2 0 .3-.2.4-.4l.2-.6V157.4v-.4-.6-.5l.1-.6-1.5.1v-1.7h6v1.5l-.8.1-.4.4-.2.7v2h4.3v-1-.4-.5-.6-.6l-1.4.1v-1.7h5.9v1.5l-.8.1a1 1 0 00-.4.4l-.1.7v6l-.1.5v.6l1.4-.1v1.8zm8-5.4l-1.1.3c-.4 0-.8.2-1 .4l-.7.7-.2.9v.5l.4.4.4.2h.5c.3 0 .6 0 1-.2l.8-.6v-2.6zm-5.8-3.5c0-.4.1-.8.4-1.2.2-.4.6-.7 1-1l1.6-.6a7.7 7.7 0 013.7 0c.5.2 1 .5 1.3.9.4.3.6.8.8 1.3.2.6.3 1.2.3 2v5.8l1.4-.1v1.8h-4.4v-.6-.5c-.6.5-1.1.9-1.7 1-.6.3-1.2.4-1.8.4-.5 0-1 0-1.3-.2a2.7 2.7 0 01-1.6-1.6l-.2-1.2a3.2 3.2 0 011-2.4l1-.8 1.4-.6a11.6 11.6 0 013-.5V157v-.8l-.3-.7-.5-.4c-.3-.1-.5-.2-.8-.1l-1 .1-.6.5.2.5v.9a1.4 1.4 0 01-.8.8h-.7a1.5 1.5 0 01-1-.4c-.2-.1-.2-.3-.3-.5l-.1-.6zM188.6 151.8l-1.5-.1-1.1-.5-.8-.8a2 2 0 01-.2-1c0-.4 0-.8.3-1 .2-.3.5-.4 1-.4l.6.1.4.4a1.5 1.5 0 01.2 1.3l-.1.4.5.4.7.1.7-.1c.2 0 .4-.2.6-.4a2.4 2.4 0 01-.3-.9v-.3a1.2 1.2 0 01.7-.9l.7-.1c.4 0 .7 0 1 .4.2.2.3.6.3 1s-.1.7-.3 1l-.7.8-1.2.5-1.5.2zm5.3 9.7v2h1.1l.3-.1v1.7h-6v-1.4c.3 0 .6 0 .7-.2.2 0 .4-.2.4-.4l.2-.6v-4.2l-4.2 4.1v1.1H187.6l.3-.1v1.7h-6v-1.5h.7l.4-.5.1-.7v-5.1-.4l.1-.5a12.3 12.3 0 010-1H181.9v-1.7h6v1.5l-.7.1a1 1 0 00-.4.4l-.2.7v3.8l4.2-4v-.5-.4h-.4a77.2 77.2 0 01-.8.1h-.3v-1.7h6v1.5l-.7.1a1 1 0 00-.4.4l-.1.7v5.1zm17 7.8h-1.6a12.3 12.3 0 00-.4-3c0-.3-.3-.6-.5-.8a1 1 0 00-.8-.4h-7.9a1 1 0 00-.7.4c-.3.2-.5.5-.6.8l-.3 1.4v1.6h-1.6v-6h1.2c.4 0 .7 0 1-.3l.7-.9.3-.9a16.9 16.9 0 00.5-2.3l.2-1.3.2-1.3v-1l-2.1.1v-1.7h11.4v1.4l-.8.2a1 1 0 00-.4.4l-.1.7v6l-.1.5v.5h2.3v6zm-5.5-12v-.4-.4-.5-.5h-1.9l-.8.1-.4.8-.3 2.2c-.1 1-.3 1.8-.6 2.6-.3.9-.6 1.6-1 2.2h3.6c.3 0 .6 0 .8-.2l.4-.4.1-.6v-4.9zM218 155a2 2 0 00-.9.2 2 2 0 00-.7.5l-.4.8-.3 1.1h4.2l-.1-1.2-.4-.8-.6-.5a2 2 0 00-.8-.1zm5.1 4l-7.5.2.1 1.7c.2.6.3 1 .6 1.4.2.4.6.7 1 1a3.7 3.7 0 003.2 0 4.7 4.7 0 001.7-1.5l1 1a6.6 6.6 0 01-2.7 2.3l-1.4.4-1.2.1c-.9 0-1.7-.1-2.4-.4a5.3 5.3 0 01-3-3.1 7.4 7.4 0 010-4.9 6 6 0 013-3.3c.8-.3 1.6-.5 2.4-.5l1.3.1c.4 0 .8.2 1.2.4l1.1.7.9 1 .5 1.5c.2.6.2 1.2.2 2zm15.2 6.2h-5.9v-1.4c.3 0 .6 0 .8-.2.2 0 .3-.2.4-.4l.1-.7v-2.2h-4.2v2.7l-.1.6 1.5-.1v1.7h-6v-1.5h.8l.4-.5.2-.7v-5.1-.4-.5a12.3 12.3 0 01.1-1h-1.5v-1.7h6v1.5l-.8.1a1 1 0 00-.4.4l-.2.7v2h4.3v-1-.4-.5-.6-.6l-1.4.1v-1.7h6v1.5l-.9.1a1 1 0 00-.4.4l-.1.7v6l-.1.5v.6l1.4-.1v1.8zm8.1-5.3l-1.2.3c-.4 0-.7.2-1 .4l-.7.7-.2.9.1.5c0 .2.2.3.3.4l.4.2h.5c.3 0 .7 0 1-.2l.8-.6v-2.6zm-5.9-3.5c0-.4.1-.8.4-1.2.2-.4.6-.7 1-1l1.6-.6a7.7 7.7 0 013.7 0l1.3.8c.4.4.6.9.8 1.4.2.6.3 1.2.3 2v5.8l1.4-.1v1.8h-4.4v-.6-.5a4.6 4.6 0 01-4.8 1.2 2.7 2.7 0 01-1.6-1.6l-.2-1.3a3.2 3.2 0 011-2.3l1-.8 1.4-.6a11.2 11.2 0 013-.5V157v-.8l-.3-.7-.5-.4c-.2-.1-.5-.2-.8-.1l-1 .1a2 2 0 00-.6.5l.2.4v1a1.4 1.4 0 01-.8.8h-.7a1.5 1.5 0 01-1-.4l-.3-.5-.1-.6z"
         class="fil1"
         id="path10" />
    </g>
  </g>
</svg>