<?xml version="1.0" encoding="UTF-8" standalone="no"?>
<svg
   xmlns:dc="http://purl.org/dc/elements/1.1/"
   xmlns:cc="http://creativecommons.org/ns#"
   xmlns:rdf="http://www.w3.org/1999/02/22-rdf-syntax-ns#"
   xmlns:svg="http://www.w3.org/2000/svg"
   xmlns="http://www.w3.org/2000/svg"
   xmlns:sodipodi="http://sodipodi.sourceforge.net/DTD/sodipodi-0.dtd"
   xmlns:inkscape="http://www.inkscape.org/namespaces/inkscape"
   version="1.2"
   preserveAspectRatio="none"
   viewBox="-1.5105000000000004 0 53 53"
   class="ng-element"
   data-id="00963014885d4a26919fad75bc272b63"
   style="opacity: 1; mix-blend-mode: normal; fill: rgb(255, 211, 78); width: 28px; height: 28px"
   id="svg10"
   sodipodi:docname="contacts-calendar.svg"
   inkscape:version="0.92.3 (2405546, 2018-03-11)">
  <metadata
     id="metadata16">
    <rdf:RDF>
      <cc:Work
         rdf:about="">
        <dc:format>image/svg+xml</dc:format>
        <dc:type
           rdf:resource="http://purl.org/dc/dcmitype/StillImage" />
        <dc:title></dc:title>
      </cc:Work>
    </rdf:RDF>
  </metadata>
  <defs
     id="defs14" />
  <sodipodi:namedview
     pagecolor="#ffffff"
     bordercolor="#666666"
     borderopacity="1"
     objecttolerance="10"
     gridtolerance="10"
     guidetolerance="10"
     inkscape:pageopacity="0"
     inkscape:pageshadow="2"
     inkscape:window-width="828"
     inkscape:window-height="480"
     id="namedview12"
     showgrid="false"
     inkscape:zoom="4.4528302"
     inkscape:cx="26.5"
     inkscape:cy="26.5"
     inkscape:window-x="0"
     inkscape:window-y="27"
     inkscape:window-maximized="0"
     inkscape:current-layer="svg10" />
  <g
     id="g8">
    <g
       id="g6">
      <g
         id="g4">
        <path
           d="M40,3V1c0-0.6-0.4-1-1-1s-1,0.4-1,1v2H12V1c0-0.6-0.4-1-1-1s-1,0.4-1,1v2H0v9v13v2v11v2v13h16h2h14h2h16V40v-2V27v-2V12V3    H40z M16,51H2V40h14V51z M16,38H2V27h14V38z M16,25H2V14h14V25z M32,51H18V40h14V51z M32,38H18V27h14V38z M32,25H18V14h14V25z     M48,51H34V40h14V51z M48,38H34V27h14V38z M48,25H34V14h14V25z M48,12H34h-2H18h-2H2V5h8v2c0,0.6,0.4,1,1,1s1-0.4,1-1V5h26v2    c0,0.6,0.4,1,1,1s1-0.4,1-1V5h8V12z M37.2,36.6c0.2,0.2,0.5,0.3,0.7,0.3s0.5-0.1,0.7-0.3l2.9-2.9l2.9,2.9c0.2,0.2,0.5,0.3,0.7,0.3    s0.5-0.1,0.7-0.3c0.4-0.4,0.4-1,0-1.4l-2.9-2.9l2.9-2.9c0.4-0.4,0.4-1,0-1.4c-0.4-0.4-1-0.4-1.4,0l-2.9,2.9L38.6,28    c-0.4-0.4-1-0.4-1.4,0c-0.4,0.4-0.4,1,0,1.4l2.9,2.9l-2.9,2.9C36.8,35.6,36.8,36.2,37.2,36.6z"
           style="fill: rgb(255, 211, 78);"
           id="path2" />
      </g>
    </g>
  </g>
</svg>