<?xml version="1.0" encoding="UTF-8" standalone="no"?>
<svg
   xmlns:dc="http://purl.org/dc/elements/1.1/"
   xmlns:cc="http://creativecommons.org/ns#"
   xmlns:rdf="http://www.w3.org/1999/02/22-rdf-syntax-ns#"
   xmlns:svg="http://www.w3.org/2000/svg"
   xmlns="http://www.w3.org/2000/svg"
   xmlns:sodipodi="http://sodipodi.sourceforge.net/DTD/sodipodi-0.dtd"
   xmlns:inkscape="http://www.inkscape.org/namespaces/inkscape"
   version="1.2"
   preserveAspectRatio="none"
   viewBox="-8 0 50 50"
   class="ng-element"
   data-id="ddf0ddd6402741629c3ddd1a2dd52e67"
   style="opacity: 1; mix-blend-mode: normal; fill: rgb(255, 211, 78); width: 28px; height: 28px"
   id="svg10"
   sodipodi:docname="contacts-placemark.svg"
   inkscape:version="0.92.3 (2405546, 2018-03-11)">
  <metadata
     id="metadata16">
    <rdf:RDF>
      <cc:Work
         rdf:about="">
        <dc:format>image/svg+xml</dc:format>
        <dc:type
           rdf:resource="http://purl.org/dc/dcmitype/StillImage" />
        <dc:title></dc:title>
      </cc:Work>
    </rdf:RDF>
  </metadata>
  <defs
     id="defs14" />
  <sodipodi:namedview
     pagecolor="#ffffff"
     bordercolor="#666666"
     borderopacity="1"
     objecttolerance="10"
     gridtolerance="10"
     guidetolerance="10"
     inkscape:pageopacity="0"
     inkscape:pageshadow="2"
     inkscape:window-width="828"
     inkscape:window-height="480"
     id="namedview12"
     showgrid="false"
     inkscape:zoom="4.72"
     inkscape:cx="25"
     inkscape:cy="25"
     inkscape:window-x="0"
     inkscape:window-y="27"
     inkscape:window-maximized="0"
     inkscape:current-layer="svg10" />
  <g
     id="g6">
    <g
       id="g4">
      <path
         d="M17,9.8c-4,0-7.3,3.3-7.3,7.3c0,4,3.3,7.3,7.3,7.3s7.3-3.3,7.3-7.3C24.2,13,21,9.8,17,9.8z M17,22.4    c-2.9,0-5.3-2.4-5.3-5.3c0-2.9,2.4-5.3,5.3-5.3s5.3,2.4,5.3,5.3C22.3,20,19.9,22.4,17,22.4z M17,0C7.6,0,0,7.9,0,17.6    c0,12.1,15.5,30.7,16.2,31.5l0.8,0.9l0.8-0.9C18.4,48.3,34,29.8,34,17.6C33.9,7.9,26.3,0,17,0z M17,46.9C13.8,42.9,2,27.5,2,17.6    C2,9,8.7,2,17,2c8.2,0,14.9,7,15,15.6C32,27.6,20.1,42.9,17,46.9z"
         style="fill: rgb(255, 211, 78);"
         id="path2" />
    </g>
  </g>
  <g
     id="g8" />
</svg>