<?xml version="1.0" encoding="UTF-8" standalone="no"?>
<svg
   xmlns:dc="http://purl.org/dc/elements/1.1/"
   xmlns:cc="http://creativecommons.org/ns#"
   xmlns:rdf="http://www.w3.org/1999/02/22-rdf-syntax-ns#"
   xmlns:svg="http://www.w3.org/2000/svg"
   xmlns="http://www.w3.org/2000/svg"
   xmlns:sodipodi="http://sodipodi.sourceforge.net/DTD/sodipodi-0.dtd"
   xmlns:inkscape="http://www.inkscape.org/namespaces/inkscape"
   version="1.2"
   preserveAspectRatio="none"
   viewBox="-2.5109999999999992 0 54 54"
   class="ng-element"
   data-id="18341e7d0da041f0b52221db79541532"
   style="opacity: 1; mix-blend-mode: normal; fill: rgb(255, 211, 78); width: 28px; height: 28px"
   id="svg10"
   sodipodi:docname="doc.svg"
   inkscape:version="0.92.3 (2405546, 2018-03-11)">
  <metadata
     id="metadata16">
    <rdf:RDF>
      <cc:Work
         rdf:about="">
        <dc:format>image/svg+xml</dc:format>
        <dc:type
           rdf:resource="http://purl.org/dc/dcmitype/StillImage" />
        <dc:title></dc:title>
      </cc:Work>
    </rdf:RDF>
  </metadata>
  <defs
     id="defs14" />
  <sodipodi:namedview
     pagecolor="#ffffff"
     bordercolor="#666666"
     borderopacity="1"
     objecttolerance="10"
     gridtolerance="10"
     guidetolerance="10"
     inkscape:pageopacity="0"
     inkscape:pageshadow="2"
     inkscape:window-width="828"
     inkscape:window-height="480"
     id="namedview12"
     showgrid="false"
     inkscape:zoom="4.3703704"
     inkscape:cx="27"
     inkscape:cy="27"
     inkscape:window-x="0"
     inkscape:window-y="27"
     inkscape:window-maximized="0"
     inkscape:current-layer="svg10" />
  <g
     id="g6">
    <g
       id="g4">
      <path
         d="M10.9,23.3c-0.4-0.6-0.9-0.9-1.5-1.2C9,22,8.5,21.9,7.9,21.9H4V31h3.9c1.4,0,2.4-0.6,3-1.7c0.5-0.8,0.7-1.9,0.7-3.1    c0-0.5-0.1-1-0.2-1.5C11.4,24.2,11.2,23.7,10.9,23.3z M9.5,28.1c-0.4,0.9-1,1.3-1.9,1.3H5.9v-5.9h1.8c0.9,0,1.4,0.2,1.7,0.7    s0.4,1.2,0.4,2.1C9.8,27,9.7,27.6,9.5,28.1z M17.1,21.6c-1.3,0-2.3,0.4-3,1.1c-0.9,0.8-1.4,2.1-1.4,3.7c0,1.6,0.5,2.9,1.4,3.7    c0.7,0.7,1.7,1.1,3,1.1c1.3,0,2.3-0.4,3-1.1c0.9-0.9,1.4-2.1,1.4-3.7c0-1.7-0.5-2.9-1.4-3.7C19.4,22,18.4,21.6,17.1,21.6z     M18.9,28.8c-0.4,0.6-1,0.8-1.8,0.8c-0.8,0-1.4-0.3-1.8-0.8c-0.4-0.6-0.7-1.3-0.7-2.4c0-1,0.2-1.8,0.7-2.4s1-0.8,1.8-0.8    c0.8,0,1.3,0.3,1.8,0.8c0.4,0.6,0.7,1.3,0.7,2.4C19.6,27.5,19.4,28.3,18.9,28.8z M30.5,27.9h-1.9c-0.1,0.5-0.3,0.8-0.5,1.1    c-0.3,0.4-0.8,0.7-1.5,0.7c-0.6,0-1.2-0.3-1.6-0.8c-0.4-0.5-0.6-1.3-0.6-2.3c0-1,0.2-1.8,0.6-2.4c0.4-0.6,0.9-0.8,1.6-0.8    c0.7,0,1.2,0.2,1.5,0.6c0.2,0.2,0.3,0.6,0.5,1h1.9c0-0.6-0.2-1.1-0.6-1.7c-0.7-1-1.8-1.5-3.3-1.5c-1.1,0-2.1,0.4-2.8,1.1    c-0.8,0.9-1.3,2.1-1.3,3.7c0,1.5,0.4,2.6,1.1,3.5c0.7,0.8,1.8,1.3,3,1.3c1,0,1.9-0.3,2.6-0.9C29.9,29.7,30.3,28.9,30.5,27.9z     M33.6,0H14c-2.8,0-5,2.2-5,5v11H5c-2.8,0-5,2.2-5,5v11c0,2.8,2.2,5,5,5h4v12c0,2.8,2.2,5,5,5h30c2.8,0,5-2.2,5-5V15.4L33.6,0z     M34,3.2L45.8,15H37c-1.7,0-3-1.3-3-3V3.2z M5,35c-1.7,0-3-1.3-3-3V21c0-1.7,1.3-3,3-3h24c1.7,0,3,1.3,3,3v11c0,1.7-1.3,3-3,3H5z     M47,49c0,1.7-1.3,3-3,3H14c-1.7,0-3-1.3-3-3V37h18c2.8,0,5-2.2,5-5V21c0-2.8-2.2-5-5-5H11V5c0-1.7,1.3-3,3-3h18v10    c0,2.8,2.2,5,5,5h10V49z"
         style="fill: rgb(255, 211, 78);"
         id="path2" />
    </g>
  </g>
  <g
     id="g8" />
</svg>