<?xml version="1.0" encoding="UTF-8" standalone="no"?>
<svg
   xmlns:dc="http://purl.org/dc/elements/1.1/"
   xmlns:cc="http://creativecommons.org/ns#"
   xmlns:rdf="http://www.w3.org/1999/02/22-rdf-syntax-ns#"
   xmlns:svg="http://www.w3.org/2000/svg"
   xmlns="http://www.w3.org/2000/svg"
   xmlns:sodipodi="http://sodipodi.sourceforge.net/DTD/sodipodi-0.dtd"
   xmlns:inkscape="http://www.inkscape.org/namespaces/inkscape"
   version="1.2"
   preserveAspectRatio="none"
   viewBox="0 0 432.883 432.883"
   class="ng-element"
   data-id="706eb2f69e9447209ceee5bd16273624"
   style="opacity: 1; mix-blend-mode: normal; overflow: visible; width: 80px; height: 80px"
   id="svg68"
   sodipodi:docname="main-horse.svg"
   inkscape:version="0.92.3 (2405546, 2018-03-11)">
  <metadata
     id="metadata74">
    <rdf:RDF>
      <cc:Work
         rdf:about="">
        <dc:format>image/svg+xml</dc:format>
        <dc:type
           rdf:resource="http://purl.org/dc/dcmitype/StillImage" />
        <dc:title></dc:title>
      </cc:Work>
    </rdf:RDF>
  </metadata>
  <defs
     id="defs72" />
  <sodipodi:namedview
     pagecolor="#ffffff"
     bordercolor="#666666"
     borderopacity="1"
     objecttolerance="10"
     gridtolerance="10"
     guidetolerance="10"
     inkscape:pageopacity="0"
     inkscape:pageshadow="2"
     inkscape:window-width="828"
     inkscape:window-height="480"
     id="namedview70"
     showgrid="false"
     inkscape:zoom="0.54518196"
     inkscape:cx="216.4415"
     inkscape:cy="216.4415"
     inkscape:window-x="0"
     inkscape:window-y="27"
     inkscape:window-maximized="0"
     inkscape:current-layer="svg68" />
  <g
     id="g6">
    <g
       id="g4">
      <path
         d="M357.912,230.129c2.546,2.434,6.531,2.529,9.19,0.218c17.87-15.514,27.344-32.667,28.967-52.444    c0.237-2.891-1.379-5.618-4.031-6.796c-30.578-13.592-60.853-12.025-90.003,4.646c-45.341,8.559-82.669,4.509-113.932-12.373    c-4.528-50.159-28.09-80.964-70.079-91.592c-1.58-0.401-3.255-0.222-4.716,0.505c-41.226,20.512-71.105,46.867-89.032,78.773    c-10.713,22.719-3.719,47.587,17.009,60.474c17.679,10.993,43.677,11.774,67.026-7.482c-0.222,18.021,2.476,35.41,8.153,52.632    c-20.273,9.006-38.096,23.504-57.013,46.235c-1.201,1.444-1.756,3.318-1.531,5.183c0.224,1.864,1.207,3.555,2.717,4.671    c54.465,40.289,108.438,60.433,161.568,60.431c53.181-0.002,105.518-20.19,156.614-60.566c2.857-2.256,3.439-6.361,1.323-9.324    c-15.805-22.132-35.292-40.315-57.994-54.132c4.564-9.993,6.803-20.516,6.784-31.875    C339.352,217.276,348.875,221.495,357.912,230.129z M315.05,211.582c1.046,13.577-1.521,25.648-7.847,36.903    c-1.847,3.284-0.683,7.441,2.598,9.291c21.504,12.128,40.093,28.329,55.334,48.212c-94.505,71.997-189.64,72.044-290.446,0.125    c17.435-19.797,33.927-32.005,52.789-39.2c3.502-1.336,5.272-5.246,3.965-8.759c-8.586-23.081-11.305-46.399-8.313-71.287    c0.365-3.031-1.328-5.936-4.146-7.113c-2.818-1.178-6.074-0.34-7.975,2.05c-20.958,26.353-46.498,28.1-62.517,18.144    c-12.384-7.699-20.855-23.997-12.093-42.621c16.015-28.466,43.16-52.564,80.703-71.654c35.604,9.967,54.482,36.941,57.682,82.376    c0.16,2.266,1.437,4.306,3.408,5.439c34.62,19.901,77.536,25.103,127.555,15.462c0.759-0.147,1.486-0.422,2.154-0.811    c24.339-14.232,48.582-16.369,73.962-6.484c-2.106,12.595-8.359,23.711-19.335,34.377c-12.616-10.112-26.622-14.054-41.713-11.72    C317.288,204.856,314.776,208.026,315.05,211.582z"
         vector-effect="non-scaling-stroke"
         style="fill: rgb(255, 211, 78);"
         id="path2" />
    </g>
  </g>
  <g
     id="g12">
    <g
       id="g10">
      <path
         d="M279.466,281.68l-2.814-2.229l-3.43,1.055c-37.804,11.631-70.209,10.266-101.978-4.294l-3.767-1.725l-3.27,2.543    c-20.733,16.126-36.695,36.577-47.444,60.786l12.479,5.542c9.272-20.881,22.782-38.7,40.187-53.021    c32.37,13.78,66.569,15.179,104.289,4.27c16.046,13.445,28.414,30.594,36.791,51.023l12.633-5.18    C313.398,316.684,298.704,296.91,279.466,281.68z"
         vector-effect="non-scaling-stroke"
         style="fill: rgb(255, 211, 78);"
         id="path8" />
    </g>
  </g>
  <g
     id="g18">
    <g
       id="g16">
      <polygon
         points="275.381,186.049 261.77,187.127 265.202,230.429 195.667,224.044 208.79,179.838 195.7,175.952 177.841,236.119    280.093,245.506   "
         vector-effect="non-scaling-stroke"
         style="fill: rgb(255, 211, 78);"
         id="polygon14" />
    </g>
  </g>
  <g
     id="g24">
    <g
       id="g22">
      <path
         d="M431.384,324.765c-2.359-2.944-6.656-3.417-9.597-1.06C288.111,430.798,153.757,428.21,11.05,315.791    c-2.961-2.333-7.253-1.823-9.586,1.138c-2.333,2.961-1.823,7.253,1.138,9.586c75.916,59.802,149.586,89.687,222.107,89.687    c69.284,0,137.52-27.29,205.614-81.842C433.268,332.003,433.741,327.707,431.384,324.765z"
         vector-effect="non-scaling-stroke"
         style="fill: rgb(255, 211, 78);"
         id="path20" />
    </g>
  </g>
  <g
     id="g30">
    <g
       id="g28">
      <path
         d="M244.278,128.833c-22.214-61.631-51.801-98.265-87.943-108.88c-32.763-9.624-70.931,2.002-113.447,34.557l-5.062,3.876    l31.237,47.167l11.383-7.538l-24.16-36.48c36.753-26.858,69.098-36.441,96.201-28.481c30.805,9.049,56.736,41.148,77.123,95.449    l-48.326,32.881l7.68,11.288l57.109-38.857L244.278,128.833z"
         vector-effect="non-scaling-stroke"
         style="fill: rgb(255, 211, 78);"
         id="path26" />
    </g>
  </g>
  <g
     id="g36">
    <g
       id="g34">
      <path
         d="M106.682,120.779h-0.79c-3.77,0-6.827,3.057-6.827,6.827c0,3.77,3.057,6.827,6.827,6.827h0.79    c3.77,0,6.827-3.057,6.827-6.827C113.508,123.836,110.452,120.779,106.682,120.779z"
         vector-effect="non-scaling-stroke"
         style="fill: rgb(255, 211, 78);"
         id="path32" />
    </g>
  </g>
  <g
     id="g38" />
  <g
     id="g40" />
  <g
     id="g42" />
  <g
     id="g44" />
  <g
     id="g46" />
  <g
     id="g48" />
  <g
     id="g50" />
  <g
     id="g52" />
  <g
     id="g54" />
  <g
     id="g56" />
  <g
     id="g58" />
  <g
     id="g60" />
  <g
     id="g62" />
  <g
     id="g64" />
  <g
     id="g66" />
</svg>