<?xml version="1.0" encoding="UTF-8" standalone="no"?>
<svg
   xmlns:dc="http://purl.org/dc/elements/1.1/"
   xmlns:cc="http://creativecommons.org/ns#"
   xmlns:rdf="http://www.w3.org/1999/02/22-rdf-syntax-ns#"
   xmlns:svg="http://www.w3.org/2000/svg"
   xmlns="http://www.w3.org/2000/svg"
   xmlns:sodipodi="http://sodipodi.sourceforge.net/DTD/sodipodi-0.dtd"
   xmlns:inkscape="http://www.inkscape.org/namespaces/inkscape"
   version="1.2"
   preserveAspectRatio="none"
   viewBox="0 -0.9990356798457078 56 56"
   class="ng-element"
   data-id="bb3d23b9c5f34d94bf63281ba3ce6402"
   style="opacity: 1; mix-blend-mode: normal; fill: rgb(255, 211, 78); width: 28px; height: 28px"
   id="svg10"
   sodipodi:docname="print.svg"
   inkscape:version="0.92.3 (2405546, 2018-03-11)">
  <metadata
     id="metadata16">
    <rdf:RDF>
      <cc:Work
         rdf:about="">
        <dc:format>image/svg+xml</dc:format>
        <dc:type
           rdf:resource="http://purl.org/dc/dcmitype/StillImage" />
        <dc:title></dc:title>
      </cc:Work>
    </rdf:RDF>
  </metadata>
  <defs
     id="defs14" />
  <sodipodi:namedview
     pagecolor="#ffffff"
     bordercolor="#666666"
     borderopacity="1"
     objecttolerance="10"
     gridtolerance="10"
     guidetolerance="10"
     inkscape:pageopacity="0"
     inkscape:pageshadow="2"
     inkscape:window-width="828"
     inkscape:window-height="480"
     id="namedview12"
     showgrid="false"
     inkscape:zoom="4.2142857"
     inkscape:cx="28"
     inkscape:cy="28"
     inkscape:window-x="0"
     inkscape:window-y="27"
     inkscape:window-maximized="0"
     inkscape:current-layer="svg10" />
  <g
     id="g8">
    <g
       id="g6">
      <g
         id="g4">
        <path
           d="M47,10H9c-5,0-9,4-9,9v16c0,5,4,9,9,9h3v-8c0-1.7,1.3-3,3-3h27c1.7,0,3,1.3,3,3v8h2c5,0,9-4,9-9V19C56,14,52,10,47,10z     M54,35c0,3.9-3.1,7-7,7v-6c0-2.8-2.2-5-5-5H15c-2.8,0-5,2.2-5,5v6H9c-3.9,0-7-3.1-7-7V19c0-3.9,3.1-7,7-7h38c3.9,0,7,3.1,7,7V35z     M40,35H17c-1.7,0-3,1.3-3,3v13c0,1.7,1.3,3,3,3h23c1.7,0,3-1.3,3-3V38C43,36.3,41.7,35,40,35z M41,51c0,0.6-0.4,1-1,1H17    c-0.6,0-1-0.4-1-1V38c0-0.6,0.4-1,1-1h23c0.6,0,1,0.4,1,1V51z M46.7,15.1c-2.6,0-4.7,2.1-4.7,4.7c0,2.6,2.1,4.7,4.7,4.7    s4.7-2.1,4.7-4.7C51.3,17.2,49.2,15.1,46.7,15.1z M46.7,22.4c-1.5,0-2.7-1.2-2.7-2.7c0-1.5,1.2-2.7,2.7-2.7c1.5,0,2.7,1.2,2.7,2.7    C49.3,21.2,48.1,22.4,46.7,22.4z M37,41H20c-0.6,0-1,0.4-1,1c0,0.6,0.4,1,1,1h17c0.6,0,1-0.4,1-1C38,41.4,37.6,41,37,41z M37,46    H20c-0.6,0-1,0.4-1,1c0,0.6,0.4,1,1,1h17c0.6,0,1-0.4,1-1C38,46.4,37.6,46,37,46z M43,3c0-1.7-1.3-3-3-3H17c-1.7,0-3,1.3-3,3v5h29    V3z M41,6H16V3c0-0.5,0.4-1,1-1h23c0.6,0,1,0.5,1,1V6z"
           style="fill: rgb(255, 211, 78);"
           id="path2" />
      </g>
    </g>
  </g>
</svg>